<?xml version="1.0" encoding="UTF-8" standalone="no"?>
<svg
   id="splitsvg"
   width="356.97058"
   height="286.48288"
   version="1.1"
   sodipodi:docname="httpyac.svg"
   inkscape:version="1.1 (c68e22c387, 2021-05-23)"
   xmlns:inkscape="http://www.inkscape.org/namespaces/inkscape"
   xmlns:sodipodi="http://sodipodi.sourceforge.net/DTD/sodipodi-0.dtd"
   xmlns="http://www.w3.org/2000/svg"
   xmlns:svg="http://www.w3.org/2000/svg">
  <defs
     id="defs2417" />
  <sodipodi:namedview
     id="namedview2415"
     pagecolor="#ffffff"
     bordercolor="#666666"
     borderopacity="1.0"
     inkscape:pageshadow="2"
     inkscape:pageopacity="0.0"
     inkscape:pagecheckerboard="0"
     showgrid="false"
     inkscape:zoom="0.79057971"
     inkscape:cx="633.07974"
     inkscape:cy="120.79743"
     inkscape:window-width="1304"
     inkscape:window-height="745"
     inkscape:window-x="54"
     inkscape:window-y="-8"
     inkscape:window-maximized="1"
     inkscape:current-layer="splitsvg" />
  <g
     id="svgg"
     transform="translate(-49.629862,-79.688)">
    <path
       id="path0"
       d="m 341.368,91.016 c 6.545,62.009 -2.679,77.064 -53.392,87.139 l -9.681,1.923 -8.288,-7.251 c -8.786,-7.687 -22.385,-14.862 -34.174,-18.03 -9.332,-2.508 -38.453,-1.131 -43.43,2.054 -1.362,0.872 -2.618,0.588 -3.491,-0.791 -1.236,-1.951 -2.067,-0.835 -1.597,2.143 0.102,0.645 -1.546,1.172 -3.663,1.172 -10.352,0 -27.915,9.104 -37.068,19.214 -8.848,9.774 -65.638,14.92 -82.917,7.514 -12.939,-5.546 -16.426,-26.276 -8.965,-53.29 1.78,-6.446 3.403,-12.422 3.608,-13.282 0.204,-0.859 0.913,-2.428 1.574,-3.486 1.455,-2.329 7.303,-19.127 7.303,-20.977 0.001,-5.258 -15.16,4.381 -24.717,15.714 -16.803,19.928 -22.7,37.317 -22.836,67.343 -0.126,27.869 2.561,34.409 16.942,41.234 10.247,4.862 39.502,8.689 66.762,8.732 l 21.307,0.034 1,6.666 c 1.204,8.031 6.333,14.696 12.418,16.138 3.877,0.918 4.353,0.668 3.59,-1.888 -2.361,-7.909 -2.627,-11.146 -1.208,-14.703 1.429,-3.581 1.566,-3.404 1.828,2.381 0.156,3.437 0.787,8.359 1.402,10.937 1.466,6.149 -5.795,20.468 -15.094,29.766 -7.583,7.583 -7.706,7.946 -4.059,11.975 2.168,2.397 2.569,5.594 2.216,17.702 -0.283,9.728 0.148,14.843 1.26,14.971 0.929,0.108 2.393,0.371 3.252,0.586 0.859,0.215 4.045,0.479 7.08,0.586 5.338,0.189 5.505,0.38 5.137,5.85 -0.439,6.514 4.234,11.533 10.736,11.533 3.452,0 3.752,0.481 2.853,4.573 -2.745,12.498 21.96,27.126 30.83,18.255 1.092,-1.092 2.934,-1.669 4.093,-1.283 4.464,1.488 21.624,-4.606 27.661,-9.824 4.875,-4.212 6.525,-4.889 8.319,-3.41 1.784,1.472 2.082,1.371 1.471,-0.498 -0.42,-1.29 -2.686,-2.571 -5.034,-2.848 -4.894,-0.577 -4.707,-4.241 0.207,-4.077 2.687,0.089 2.916,-0.339 1.444,-2.696 -3.269,-5.234 11.663,-13.823 22.408,-12.89 9.77,0.849 27.179,-2.188 30.667,-5.35 1.6,-1.45 5.846,-4.933 9.435,-7.741 29.317,-22.931 34.227,-67.662 9.26,-84.354 -9.464,-6.327 -10.879,-5.432 -3.8,2.404 9.985,11.053 19.076,40.989 12.447,40.989 -0.977,0 -1.776,-0.977 -1.776,-2.171 0,-1.194 -1.377,-3.83 -3.06,-5.859 l -3.06,-3.689 1.546,5.77 c 1.931,7.207 -0.277,22.117 -4.492,30.333 l -3.034,5.914 0.755,-7.859 c 0.653,-6.799 -2.374,-17.751 -4.906,-17.751 -0.3,0 -0.525,4.394 -0.501,9.765 0.066,14.537 -7.45,28.554 -18.405,34.325 -2.957,1.558 -2.946,1.446 0.208,-2.082 4.805,-5.374 8.386,-13.068 8.386,-18.018 0,-4.036 -0.264,-3.874 -4.464,2.75 -7.861,12.394 -14.479,16.631 -25.814,16.524 -19.45,-0.183 -39.257,16.364 -32.514,27.162 1.528,2.445 0.612,3.144 -7.887,6.014 -10.077,3.403 -25.327,4.355 -26.977,1.685 -1.89,-3.058 -4.047,-1.62 -2.344,1.562 2.378,4.442 -2.607,4.212 -9.535,-0.441 -6.342,-4.26 -7.722,-10.427 -3.319,-14.83 2.906,-2.906 2.793,-2.995 -6.093,-4.831 -9.793,-2.023 -11.449,-3.328 -10.003,-7.884 0.762,-2.402 3.056,-3.152 12.21,-3.989 6.199,-0.567 14.624,-2.186 18.723,-3.597 6.995,-2.41 7.737,-2.398 12.109,0.185 5.614,3.316 6.025,1.213 0.923,-4.719 l -3.736,-4.343 -10.061,3.552 c -7.59,2.68 -12.715,3.437 -20.873,3.084 l -10.814,-0.468 -0.496,-6.054 c -0.647,-7.883 5.149,-14.212 15.951,-17.42 10.14,-3.012 11.358,-2.912 8.123,0.662 -3.655,4.04 -0.972,5.44 7.882,4.112 9.129,-1.369 15.992,-7.455 17.236,-15.285 1.052,-6.618 -1.666,-8.24 -3.247,-1.939 -0.936,3.731 -1.163,3.803 -4.675,1.503 -4.483,-2.938 -11.443,-3.225 -36.867,-1.522 l -19.532,1.308 5.284,-6.018 c 2.906,-3.31 6.844,-9.385 8.75,-13.501 l 3.467,-7.483 3.632,3.865 c 4.659,4.96 5.398,4.883 11.527,-1.213 13.225,-13.152 24.42,-21.816 22.848,-17.681 -2.454,6.456 -6.472,13.945 -9.072,16.91 -3.563,4.063 -2.983,4.142 20.759,2.86 23.91,-1.292 28.911,-2.861 37.075,-11.626 l 4.579,-4.916 -2.553,6.25 c -1.404,3.438 -3.219,6.918 -4.034,7.735 -5.662,5.675 6.398,1.789 15.141,-4.88 7.016,-5.351 13.066,-17.986 13.066,-27.288 0,-9.106 -1.016,-8.529 18.779,-10.669 9.008,-0.974 19.541,-2.456 23.409,-3.294 3.867,-0.838 8.437,-1.792 10.156,-2.12 40.84,-7.797 66.25,-33.097 61.095,-60.831 -0.341,-1.837 -1.113,-6.153 -1.715,-9.59 -2.525,-14.427 -5.841,-23.09 -15.813,-41.315 -3.279,-5.991 -4.003,-7.059 -8.44,-12.44 -1.703,-2.065 -3.096,-4.35 -3.096,-5.078 0,-0.728 -1.508,-1.323 -3.352,-1.323 -3.229,0 -3.307,0.414 -2.155,11.328 m 14.841,17.578 c 16.922,35.307 15.848,63.912 -2.96,78.808 -11.849,9.384 -28.075,14.39 -66.114,20.395 -26.238,4.142 -24.929,4.315 -28.236,-3.729 -1.551,-3.772 -5.418,-9.57 -8.594,-12.885 l -5.774,-6.027 20.629,0.511 c 68.806,1.702 99.731,-33.817 80.846,-92.856 -2.054,-6.423 4.188,3.233 10.203,15.783 m -303.833,8.214 c -16.335,40.199 -9.77,73.216 15.612,78.522 10.961,2.291 46.142,1.05 66.778,-2.355 5.398,-0.891 5.88,3.537 1.114,10.231 -1.75,2.458 -4.63,7.742 -6.399,11.742 l -3.217,7.272 -26.804,-1.104 c -56.301,-2.318 -70.909,-8.666 -73.544,-31.959 -2.8,-24.75 6.766,-55.39 23.322,-74.704 7.325,-8.544 7.51,-8.405 3.138,2.355 m 192.155,47.896 c 6.016,2.291 14.805,6.775 19.532,9.965 l 8.593,5.8 -17.081,0.446 c -12.755,0.333 -18.642,-0.178 -23.242,-2.018 -7.496,-3 -8.979,-2.208 -3.085,1.647 27.379,17.91 36.707,50.329 19.284,67.021 l -4.509,4.32 0.782,-13.052 0.782,-13.052 -3.233,6.25 c -9.142,17.675 -17.08,22.483 -39.802,24.11 -18.3,1.31 -17.581,1.474 -14.458,-3.292 2.567,-3.918 6.359,-17.855 8.002,-29.411 l 0.999,-7.032 -3.314,5.469 c -1.822,3.008 -10.731,12.59 -19.796,21.294 l -16.483,15.826 -4.513,-7.117 c -5.547,-8.748 -6.817,-15.032 -5.529,-27.36 l 0.995,-9.523 -5.328,5.164 c -5.356,5.192 -9.237,15.37 -7.724,20.259 0.598,1.93 0.188,1.813 -1.682,-0.482 -6.154,-7.553 -0.185,-26.362 13.791,-43.452 7.795,-9.531 8.032,-10.641 1.334,-6.253 l -4.168,2.732 3.052,-5.228 c 8.184,-14.02 24.171,-22.22 45.5,-23.336 12.918,-0.675 14.281,-1.018 11.855,-2.982 -5.3,-4.289 26.512,-1.638 39.446,3.287 m 13.366,104.046 c -0.164,4.892 -0.403,5.18 -2.26,2.734 -2.449,-3.226 -4.074,-3.521 -4.074,-0.738 0,3.332 -4.97,9.451 -6.139,7.559 -0.636,-1.029 -4.104,1.437 -8.785,6.249 l -7.733,7.949 8.594,-4.322 c 4.727,-2.377 10.176,-5.734 12.109,-7.461 l 3.516,-3.14 v 4.421 c 0,4.232 0.126,4.307 2.946,1.755 3.693,-3.342 5.115,-10.105 3.358,-15.972 l -1.348,-4.503 -0.184,5.469 m -73.717,16.602 c 6.462,1.292 6.574,5.94 0.195,8.164 -4.163,1.451 -4.687,1.294 -4.687,-1.41 0,-2.594 -1.109,-3.043 -7.506,-3.043 -7.537,0 -23.744,6.494 -23.744,9.514 0,3.532 -6.009,0.516 -11.587,-5.815 l -6.117,-6.944 6.117,0.863 c 3.365,0.475 11.04,0.242 17.055,-0.516 14.041,-1.771 24.132,-2.042 30.274,-0.813 m -40.745,25.931 0.467,7 -5.935,-0.965 c -4.297,-0.698 -5.9,-1.713 -5.806,-3.673 0.072,-1.489 0.248,-5.962 0.391,-9.939 l 0.261,-7.231 5.078,3.904 c 4.19,3.222 5.159,5.127 5.544,10.904"
       stroke="none"
       fill="#000000"
       fill-rule="evenodd"
       transform="translate(30)"
       sodipodi:nodetypes="ccccccccscccccccccccccscccccccsccsccccccccccccccssscssccscccscccccccsccccccccsccccccccccccccccccsccccscccccccsscccscccccccccscccccccccscccccccccccccccccccccccccccccsccccccsscccccsssccccccccccccc" />
  </g>
</svg>
