<svg xmlns="http://www.w3.org/2000/svg" viewBox="0 0 500 400"><path d="M341.37 91.02c6.54 62-2.68 77.06-53.4 87.14l-9.68 1.92-8.28-7.25c-8.79-7.69-22.39-14.87-34.18-18.03-9.33-2.51-38.45-1.13-43.43 2.05-1.36.87-2.62.59-3.49-.79-1.23-1.95-2.07-.83-1.6 2.14.1.65-1.54 1.18-3.66 1.18-10.35 0-27.91 9.1-37.07 19.2-8.84 9.78-65.63 14.93-82.91 7.52-12.94-5.54-16.43-26.27-8.97-53.29 1.78-6.44 3.4-12.42 3.61-13.28.2-.86.91-2.43 1.57-3.48 1.46-2.33 7.3-19.13 7.3-20.98 0-5.26-15.15 4.38-24.71 15.71-16.8 19.93-22.7 37.32-22.84 67.35-.12 27.86 2.56 34.4 16.95 41.23 10.24 4.86 39.5 8.69 66.76 8.73l21.3.04 1 6.66c1.2 8.03 6.34 14.7 12.42 16.14 3.88.92 4.36.67 3.6-1.89-2.37-7.9-2.63-11.14-1.22-14.7 1.43-3.58 1.57-3.4 1.83 2.38a71.7 71.7 0 0 0 1.4 10.94c1.47 6.15-5.79 20.46-15.09 29.76-7.58 7.59-7.7 7.95-4.06 11.98 2.17 2.4 2.57 5.6 2.22 17.7-.29 9.73.15 14.84 1.26 14.97.93.1 2.4.37 3.25.59.86.21 4.04.48 7.08.58 5.34.2 5.5.38 5.14 5.85-.44 6.52 4.23 11.54 10.73 11.54 3.45 0 3.75.48 2.86 4.57-2.75 12.5 21.96 27.12 30.83 18.25 1.09-1.09 2.93-1.67 4.09-1.28 4.46 1.49 21.62-4.6 27.66-9.82 4.87-4.22 6.52-4.9 8.32-3.41 1.78 1.47 2.08 1.37 1.47-.5-.42-1.3-2.69-2.57-5.03-2.85-4.9-.58-4.71-4.24.2-4.08 2.69.1 2.92-.34 1.45-2.7-3.27-5.23 11.66-13.82 22.4-12.88 9.77.85 27.18-2.2 30.67-5.35 1.6-1.45 5.85-4.94 9.44-7.74 29.31-22.93 34.22-67.67 9.26-84.36-9.47-6.32-10.88-5.43-3.8 2.4 9.98 11.06 19.07 41 12.44 41-.97 0-1.77-.98-1.77-2.18 0-1.19-1.38-3.83-3.06-5.85l-3.06-3.7 1.54 5.78c1.93 7.2-.27 22.11-4.49 30.33l-3.03 5.91.75-7.86c.66-6.8-2.37-17.75-4.9-17.75-.3 0-.53 4.4-.5 9.77.06 14.54-7.45 28.55-18.4 34.32-2.97 1.56-2.96 1.45.2-2.08 4.8-5.37 8.38-13.07 8.38-18.02 0-4.03-.26-3.87-4.46 2.75-7.86 12.4-14.48 16.63-25.81 16.53-19.45-.19-39.26 16.36-32.52 27.16 1.53 2.44.61 3.14-7.88 6.01-10.08 3.4-25.33 4.36-26.98 1.69-1.9-3.06-4.05-1.62-2.35 1.56 2.38 4.44-2.6 4.21-9.53-.44-6.34-4.26-7.72-10.43-3.32-14.83 2.9-2.9 2.8-3-6.1-4.83-9.78-2.02-11.44-3.33-10-7.89.77-2.4 3.06-3.15 12.22-3.98 6.2-.57 14.62-2.2 18.72-3.6 7-2.41 7.73-2.4 12.1.18 5.62 3.32 6.03 1.22.93-4.72l-3.74-4.34-10.06 3.55c-7.59 2.68-12.71 3.44-20.87 3.09l-10.81-.47-.5-6.05c-.65-7.89 5.15-14.22 15.95-17.42 10.14-3.02 11.36-2.92 8.12.66-3.65 4.04-.97 5.44 7.89 4.1 9.13-1.36 15.99-7.45 17.23-15.28 1.05-6.61-1.66-8.24-3.24-1.93-.94 3.73-1.17 3.8-4.68 1.5-4.48-2.94-11.44-3.23-36.87-1.52l-19.53 1.3 5.29-6.01a67.77 67.77 0 0 0 8.75-13.5l3.46-7.49 3.63 3.87c4.66 4.96 5.4 4.88 11.53-1.22 13.23-13.15 24.42-21.81 22.85-17.68-2.46 6.46-6.47 13.95-9.07 16.91-3.57 4.07-2.99 4.15 20.76 2.86 23.9-1.29 28.9-2.86 37.07-11.62l4.58-4.92-2.55 6.25c-1.4 3.44-3.22 6.92-4.04 7.74-5.66 5.67 6.4 1.79 15.14-4.88 7.02-5.35 13.07-17.99 13.07-27.3 0-9.1-1.02-8.52 18.78-10.66 9-.98 19.54-2.46 23.4-3.3 3.87-.83 8.44-1.79 10.16-2.12 40.84-7.8 66.25-33.1 61.1-60.83-.34-1.83-1.11-6.15-1.72-9.59-2.52-14.42-5.84-23.09-15.8-41.31-3.29-6-4.01-7.06-8.45-12.44-1.7-2.07-3.1-4.35-3.1-5.08 0-.73-1.5-1.32-3.35-1.32-3.23 0-3.3.41-2.15 11.33m14.84 17.57c16.92 35.31 15.85 63.92-2.96 78.81-11.85 9.39-28.08 14.4-66.11 20.4-26.24 4.14-24.93 4.31-28.24-3.73-1.55-3.77-5.42-9.57-8.6-12.89l-5.77-6.02 20.63.5c68.8 1.7 99.73-33.81 80.85-92.85-2.06-6.42 4.18 3.23 10.2 15.78m-303.83 8.22c-16.34 40.2-9.77 73.21 15.6 78.52 10.97 2.3 46.15 1.05 66.79-2.35 5.4-.9 5.88 3.53 1.11 10.23-1.75 2.45-4.63 7.74-6.4 11.74l-3.22 7.27-26.8-1.1c-56.3-2.32-70.9-8.67-73.54-31.96-2.8-24.75 6.76-55.4 23.32-74.7 7.32-8.55 7.5-8.41 3.14 2.35m192.15 47.9c6.02 2.28 14.8 6.77 19.53 9.96l8.6 5.8-17.08.45c-12.76.33-18.65-.18-23.25-2.02-7.5-3-8.98-2.21-3.08 1.64 27.38 17.91 36.7 50.33 19.28 67.03l-4.5 4.32.78-13.06.78-13.05-3.24 6.25c-9.14 17.68-17.08 22.48-39.8 24.11-18.3 1.31-17.58 1.48-14.46-3.3 2.57-3.9 6.36-17.85 8-29.4l1-7.03-3.3 5.47c-1.83 3-10.74 12.59-19.8 21.29L157.5 259l-4.51-7.12c-5.55-8.75-6.82-15.03-5.53-27.36l1-9.52-5.33 5.16c-5.36 5.2-9.24 15.37-7.73 20.26.6 1.93.2 1.81-1.68-.48-6.15-7.56-.18-26.37 13.8-43.46 7.79-9.53 8.02-10.64 1.33-6.25l-4.17 2.73 3.05-5.23c8.18-14.02 24.17-22.22 45.5-23.33 12.92-.68 14.28-1.02 11.86-2.98-5.3-4.3 26.5-1.64 39.44 3.28m13.37 104.05c-.17 4.9-.4 5.18-2.26 2.73-2.45-3.22-4.08-3.52-4.08-.73 0 3.33-4.97 9.45-6.14 7.55-.63-1.02-4.1 1.44-8.78 6.25l-7.73 7.95 8.59-4.32c4.73-2.38 10.18-5.73 12.1-7.46l3.53-3.14V282c0 4.23.12 4.3 2.94 1.76 3.7-3.35 5.12-10.1 3.36-15.98l-1.35-4.5-.18 5.47m-73.72 16.6c6.46 1.3 6.57 5.94.2 8.17-4.17 1.45-4.7 1.29-4.7-1.41 0-2.6-1.1-3.05-7.5-3.05-7.53 0-23.74 6.5-23.74 9.52 0 3.53-6.01.51-11.59-5.82l-6.12-6.94 6.12.86c3.37.48 11.04.24 17.06-.52 14.04-1.77 24.13-2.04 30.27-.8m-40.74 25.92.46 7-5.93-.96c-4.3-.7-5.9-1.72-5.8-3.68.06-1.48.24-5.96.38-9.93l.26-7.24 5.08 3.9c4.2 3.23 5.16 5.14 5.55 10.91" fill-rule="evenodd" transform="matrix(1.24288 0 0 1.2725 7.53 -91.28)" style="display:inline"/><path style="fill:#000;stroke-width:.632447" d="M433.98 6.45c-5.37-.32-7.25 5.72-6.51 10.1 1.72 21.87 4.08 43.78 1.52 65.5-1.96 14.73-9.94 29.23-23.42 36.31-15.64 8.67-33.6 11.91-50.89 15.31-10.1-8.51-20.06-17.52-32.17-23.17-10.8-5.5-22.43-10.07-34.74-9.9-13.56-.23-27.5-.33-40.6 3.55-2.52 1.99-3.83-2.5-6.67-1.45-2.67.18-3.46 3.28-4.12 4.95-19.32 1.47-36.24 13-49.93 25.99-7.28 5.78-17.19 7.06-25.86 9.03-20.03 3.3-40.75 4.6-60.65 2.3-7.89-.94-16.67-3.46-20.38-11.26-6.3-11.08-4.9-24.66-4.14-36.7a216.83 216.83 0 0 1 10.07-39.38c3.68-9.1 7.2-18.42 9.09-28.07.14-5.04-6.26-6.66-9.95-4.33-15.8 7.46-27.45 21.41-37.1 35.59-11.37 16.6-17.17 36.45-18.44 56.42-1.14 18.19-2.23 36.97 2.93 54.66 4.18 12.65 17.4 19.3 29.35 22.79 29.22 7.2 59.56 8.01 89.52 8.2 3.2.76 9.56-2.21 8.87 3.13 1.52 11.2 8.04 23.62 20.04 26.02 2.94-.2.07 3.1-.12 4.64-4.68 11.81-13.9 20.82-21.9 30.36-3.23 3.42-2.2 8.41.9 11.49 3.92 5.1 1.98 11.93 2.67 17.79.42 7.44-.7 15.2 1.15 22.46 3.12 5.4 10.44 4.07 15.67 4.91 2.36.08 5.28-.03 4.09 3.3-1.12 9.34 6.53 18.65 16.05 18.73 2.25-.04.15 3.75.82 5.14-.13 10.56 9.03 18.18 17.36 23.08 6.92 4.18 15.83 5.45 23.43 2.57 2.64-1.74 5.22-3.85 8.64-3.17 14.48-1.06 27.99-8.05 39.13-17.07 1.77-.93 3.96 1.95 6.08.42 4.8-2.32 2.1-9.1-2.15-10.38.22-.89 2.43-3.24 1.46-5.2-.9-2.07-2-4.15.39-5.78 6.54-6.24 15.8-8.34 24.6-8.08 12.11-.5 24.87-.77 36-6.08 9.48-7.08 18.76-14.68 26.62-23.55 10.96-13.53 18.62-30.2 20.17-47.62.8-11.84.11-24.13-5.4-34.88-5.32-11.04-15.05-19.88-26.26-24.63-4.45-1.17-7.06 4.79-4.06 7.87 6.54 8.25 12.5 17.08 16.29 27.01 2.5 6.2 4.57 12.61 5.52 19.24-2-2.99-4.85-8.23-9.08-5.68-4.13 3.2-.33 8.63-.48 12.84.58 7.36-.43 14.77-2.2 21.91-1.03-5.68-1.7-13.05-7.34-16.12-4.1-1.54-6.67 3.15-5.97 6.66.16 10.96-.69 22.34-5.76 32.27.97-3.78 2.29-10.6-3.15-11.45-5.54.3-7.28 6.85-10.4 10.47-5.4 7.85-12.8 16.19-23.18 16.1-14.42.53-29.67 4.27-40.08 14.98-6.32 5.78-12.2 14.89-8.12 23.6 1.24 2.54-3.61 2.36-5.2 3.44-9.9 3.31-20.62 5.5-31 3.87-2.34-2.21-6.19-4.86-9.03-1.76-1.73 1.38-1.12 4.5-1.26 5.72-4.87-2.39-11.57-6.2-10.92-12.5.6-4.18 6.83-7.1 4.01-11.68-3.55-3.77-9.6-3.4-14.24-5.09-2.4-.87-5.92-1.13-7.4-3.14.64-3.41 5.35-2.56 7.85-3.43 12.11-1.22 23.98-4 35.67-7.23 4.69.6 9.25 6.09 14.16 2.97 4.2-3.46-.34-8.42-2.58-11.57-2.92-3.5-6.1-10.1-11.55-7.13-10.16 3.8-20.59 8.1-31.68 7.29-4.49-.03-8.98-.12-13.47-.35-.47-5.66-.44-12.73 5-16.4a41.97 41.97 0 0 1 15.6-7.23c-2.14 4.73 3.32 8.27 7.55 7.78 12.1.4 25.13-5.13 30.52-16.51 1.69-5.04 3.47-11.1 1.07-16.15-2.55-4.02-8.27-1.46-9.2 2.53-.66 1.9-1.01 3.78-3 1.73-8.07-3.73-17.34-2-25.94-2.34-11.97.33-23.93.9-35.87 1.76a105.01 105.01 0 0 0 14.2-23.2c3.3 3.62 8.72 8.67 13.7 4.83 8.78-6.85 16.12-15.36 24.75-22.4-2.26 5.7-6.81 10.16-9.05 15.79-.93 4.59 4.43 5.86 7.92 5.42 17.8-.36 35.9-.11 53.3-4.3 3.18-.8 6.77-2.37 9.27-3.88-3.14 3.5.8 8.45 4.96 7.53 9.46-1.6 17.63-7.68 24.38-14.22 6.93-7.37 11.12-17.16 13.03-27.03.99-4.35.33-9.14 1.55-13.34 9.22-2.84 19.11-2.68 28.6-4.3 27.92-4.06 57.18-8.73 80.89-25.14 17.66-11.92 32.04-31.52 31.49-53.6a195.1 195.1 0 0 0-9.24-45.07c-6.7-17.45-15.46-34.18-26.73-49.13-1.72-3.75-4.87-6.8-9.32-6.28Zm13.2 43.24c6.56 13.9 12.03 28.89 13.46 44.44.05 11.09 1.5 22.87-3.86 33.1-5.73 14.87-20.25 23.87-34.66 28.93-23.2 8.08-47.4 11.5-71.61 15.35-4.8.49-10.12 1.72-14.91.9-4.41-8.44-8.64-17.14-15.36-24.08 25.58.14 52.1 1.52 76.37-8.06 21.56-7.8 41.07-24.44 47.55-47.04 4.55-14.6 4.6-30.26 2.2-45.26l.82 1.72zM66.17 64.17c-6.94 19.81-10.44 41.44-6.55 62.27 2.9 13.6 11.2 26.97 24.65 32.13 13.47 5.24 28.32 3.69 42.47 3.68 16.66-.35 33.2-2.38 49.75-4.08-2.56 7.54-7.75 13.93-10.77 21.32-1.59 2.55-2.2 6.55-4.39 8.2-28.78-1.8-57.93-1.34-86.29-7.17-11.32-2.67-24.24-7.56-28.63-19.4-4.5-10.6-2.9-22.48-2.88-33.7 1.53-19 7.8-37.78 16.93-54.32 1.74-2.96 3.82-6.58 5.7-8.93zm203.41 50.95c19.84.55 40.13 4.3 57.14 15.04 2.67 1.54 5.31 3.13 7.92 4.76-13.8.2-28.27 1.8-41.45-3.55-3.32-1.76-9.06-.73-8.35 4.02 2.23 5.18 8.18 7.42 12.06 11.23 16.57 13.65 29.3 34.47 26.06 56.57-.8 6-3.73 11.52-7.75 15.98.08-7.42 1.19-14.9.65-22.24-1-4.38-7.28-3.14-8.08.83-5.93 11.48-12.62 24.7-25.84 29-11.94 3.97-25.2 4.56-37.16 4.81 6.43-14.14 9.1-29.72 11.02-45.04-.13-4.71-6.78-5.2-8.34-1.03-9.54 14.06-22.28 25.8-34.26 37.9a556.68 556.68 0 0 1-9.31 8.84c-4.55-8.02-10.42-16.27-9.47-25.99-.2-7.78.52-15.5.81-23.13-.38-4.72-6.61-4.28-8.47-.7-4.66 4.47-8.86 9.53-11.58 15.43 3.1-17.22 14.57-31.2 24.64-44.93 2.4-2.37 3.57-7.28-.43-8.68-2.62-.32 1.38-2.91 2.12-4.2 13.3-13.91 33.34-17.96 51.83-18.79 4.39-.93 10.54.71 13.4-3.63.65-2.58-.18-2.69 2.84-2.5zM232.2 275c2.1.2 4.45.46 6.12 1.82-1.26.69-4.2 3.64-4.27.76a7.06 7.06 0 0 0-1.85-2.58zm-25.1.89c-6.4 2.38-13.73 4.6-17.93 10.35-3.95-2.21-6.89-5.8-10.04-8.97 9.58.45 19.12-.61 28.63-1.59l-.6.2zm-30.71 17.88c5.35 3.26 5.65 9.99 5.9 15.58-2.13-.54-4.74-.66-6.48-1.79.1-4.52-.27-9.67.58-13.8z"/><path style="fill:#000;stroke-width:.632447" d="M326.44 243.41c-2.46 1.24-.5 6.43-3.76 4.13-4.44-1.1-6.45 3.82-6.89 7.33-1.07 2.25-2.43 4.98-5.32 4.52-7.37 2.82-12.03 9.83-17.43 15.24-3.6 2.67-1.15 9.2 3.48 7.78 7.66-3.1 15.43-7.92 21.9-12.15-.3 4.4 5.33 6.67 8.3 3.53 8.37-6.58 9.22-18.89 5.89-28.31a4.23 4.23 0 0 0-6.17-2.07z"/><path style="fill:#000;stroke-width:.632447" d="M433.8 2.64c-6.61-.04-11.07 6.98-9.8 13.14.8 24.11 5.1 48.5-.2 72.37-3.15 13.24-13.4 25.02-26.3 29.95-13.35 5.62-27.58 9.07-41.83 11.31-7.7-5.8-14.88-12.66-23.29-17.63-13.84-8.2-29.2-15.1-45.62-14.82-13.7-.4-27.54.14-40.89 3.53-4.1-3.02-10.25-1.17-11.94 3.6-18.97 2.39-35.3 13.61-49.3 25.97-8.52 6.82-19.92 7.72-30.26 9.7-19.87 2.69-40.3 3.97-60.12.27-6.14-1.01-10.93-5.68-12.92-11.47-3.93-9.65-2.51-20.43-2.13-30.57 2.47-18.87 9.04-36.77 15.42-54.52 1.26-5.53 4.41-11.27 3.07-17.01-2.22-6.02-9.92-7.3-15.04-4.29-18.4 9.05-31.72 25.77-42.05 43.03-10.73 17.75-14.92 38.55-15.6 59.07-.71 17.16-1.37 35.05 4.66 51.41 5.84 12.67 19.54 19.46 32.4 22.95 30.85 7.15 62.73 7.87 94.25 8.17 1.09 11.93 8.65 23.86 19.9 28.13-4.73 12.02-14.46 20.83-21.9 31.06-3.62 4.65-2.25 11.04 1.57 15.09 2.18 4.59 1.02 10.17 1.62 15.17.56 7.99-.34 16.28 1.74 24.06 3.58 6.96 12.66 6.18 19.22 7.14-.53 10.1 7.02 19.98 17.08 21.68-.93 11.17 7.14 20.41 16.04 25.97 9.41 6.93 23.13 9.43 33.32 2.73 6.37-1.69 13.22-1.58 19.46-4.12 9-2.86 17.14-8.18 24.65-13.54 5.67 2.6 12.24-3.07 10.75-9.03-.2-2.51-2.18-4.66-3.3-6.5 1.22-2.18-.26-4.7-.32-6.63 6.95-6.86 16.97-6.55 25.82-7.25 11.68-1 24.4-.83 34.69-7.21 18.35-12.68 34.85-29.45 42.57-50.78 6.24-16 7.1-34.03 2.9-50.64-4.19-14.65-15-26.95-28.6-33.65 26.79-4.27 54.66-9.46 77.2-25.6 18.2-12.52 32.66-33.07 32.18-55.86a177 177 0 0 0-27-82.1c-4.9-7.03-8.68-15.3-15.54-20.66a11.64 11.64 0 0 0-6.57-1.62zm17.82 68.09a93.77 93.77 0 0 1 5.3 34.36c.52 8.78-1.22 17.64-5.85 25.2-8.85 15.6-26.96 21.76-43.23 26.32-22.02 5.68-44.6 9.6-67.32 12.2-3.89 1.2-4.02-4.18-6.03-6.46-1.92-3.37-3.94-6.7-6.15-9.89 23.56-.54 47.98.1 70.2-9.05 21.3-7.82 40.26-23.98 47.93-45.75a76.13 76.13 0 0 0 4.81-27.94l.2.6zM55.47 92.84c-1.6 18.08-2.24 38.06 8.67 53.63 7.6 12.24 21.89 18.43 35.88 19.24 23.34 1.72 47.5-1.17 70.22-2.95-3.72 7.04-7 14.33-11.1 21.15-28.4-2.08-57.44-1.42-85.18-7.62-10.16-2.32-21.5-7.53-24.73-18.33-3.53-13.11-2.2-26.98-.54-40.29 1.3-8.5 3.66-16.83 6.78-24.83Zm215.65 26.07c17.46.88 35.08 3.78 50.43 12.6-9.56-.09-19.3-.43-28.32-3.97-5.74-2.65-14.42 2.68-11.73 9.34 3.92 7.37 12.27 10.77 17.65 16.9 9.14 8.4 15.65 19.49 19.23 31.31.6 3.29.94 7.89.75 10.3-1.96-6.38-11.45-6.24-13.98-.4-5.88 10.45-11.55 22.95-23.44 27.7-10.05 3.37-20.94 4.68-31.33 5.07 4.55-13.44 8.13-27.45 8.72-41.68.46-6.26-7.9-9.19-12.19-5.28-5.9 6.45-10.73 13.86-17.06 19.96-8.22 8.58-16.74 17.4-25.18 25.35-3.76-6.16-7.08-12.85-6.6-20.45-.37-8.54 1.78-17.25-.15-25.67-1.42-4.22-7.16-5.19-10.52-2.73 5.05-9.05 12.37-16.64 17.35-25.7 1-2.73.77-6.06-.94-8.46 11.86-12.61 29.84-16.7 46.41-17.9 6.25-1.06 13.77.1 18.84-4.39.89-.58.68-2.46 2.06-1.9zm90.9 71.16c-3.3 3.26-1.92 8.1.82 11.18 7.67 10.18 14.58 21.53 17.87 33.64-5.18-.77-9.33 4.39-8.22 9.34.66 4.43 1.64 9.43 1.15 13.58-2.87-4.53-10.1-5.75-13.35-.96-3.9 5.55-1.35 12.81-2.64 19.08-.3 2.1-.37 4.96-1.09 6.59-5.43-3.04-11.32 1.28-13.83 6.1-5.38 7.63-11.1 16.96-20.96 18.93-11.94.86-24.13 2.62-34.7 8.63a48.47 48.47 0 0 0-17.87 17.29c-2.94 4.75-3.16 10.47-2.25 15.84-9.91 3.17-20.7 6.52-31.1 3.97-3.3-2.52-8.35-4.21-11.64-.7-1.57 2.23-2.73 3.55-4.73.98-3.27-1.91-1.43-5.55.32-7.78 2.97-3.89 3.2-10.42-1.68-12.88-3.58-2.05-7.73-2.79-11.64-3.82 11.43-1.38 22.58-4.55 33.9-6.45 4.88 1.22 10.68 6.36 15.16 1.75 4.9-3.12 4.01-9.9.74-13.88-3.5-4.51-6.64-10.97-12.79-12.06-9.2.94-17.4 6.3-26.68 7.22-6.2.77-12.49.59-18.72.36-.1-4.3 1.28-8.84 5.39-10.9 2.5-1.57 5.57-3.56 8.2-3.98 2.9 7.32 12.17 6.84 18.61 5.73 12.8-1.77 25.62-10.6 27.97-23.96 1.28-5.84 1.67-14.7-5.25-17-4.42-1.37-9.03 1.52-11.02 5.42-5.9-3.15-12.97-.9-19.39-1.53-11.34-.06-23.6.34-34.4.46 2.8-3.92 5.17-8.91 7.69-12.49 3.86 3.72 10.3 5.3 14.63 1.37 3.43-2.37 7.02-6.34 9.8-8.3-.28 5.93 6.33 8.52 11.32 8.08 17.67-.32 35.56-.44 52.92-4.1 1.9-.13 4.4-1.78 5.9-1.42 2.5 4.88 8.74 5.95 13.47 3.85 17.96-5.97 32.25-21.88 35.7-40.58 1.03-4.52 1.34-9.26 2.08-13.76 6.5-1.35 13.52-2.05 20.3-2.84zm-173.26 90.95c-1.54-.22 1.05-.43 0 0z"/></svg>